<svg id="visual" viewBox="0 0 900 600" width="900" height="600" xmlns="http://www.w3.org/2000/svg" xmlns:xlink="http://www.w3.org/1999/xlink" version="1.1"><rect x="0" y="0" width="900" height="600" fill="#001220"></rect><defs><linearGradient id="grad1_0" x1="33.3%" y1="0%" x2="100%" y2="100%"><stop offset="20%" stop-color="#001220" stop-opacity="1"></stop><stop offset="80%" stop-color="#001220" stop-opacity="1"></stop></linearGradient></defs><defs><linearGradient id="grad2_0" x1="0%" y1="0%" x2="66.7%" y2="100%"><stop offset="20%" stop-color="#001220" stop-opacity="1"></stop><stop offset="80%" stop-color="#001220" stop-opacity="1"></stop></linearGradient></defs><g transform="translate(900, 0)"><path d="M0 486.7C-65.4 481.7 -130.9 476.7 -186.3 449.7C-241.7 422.7 -287 373.9 -325.3 325.3C-363.5 276.7 -394.6 228.3 -420.4 174.1C-446.1 120 -466.4 60 -486.7 0L0 0Z" fill="#FBAE3C"></path></g><g transform="translate(0, 600)"><path d="M0 -486.7C55.3 -463.7 110.6 -440.7 174.9 -422.2C239.1 -403.7 312.3 -389.8 344.2 -344.2C376 -298.6 366.5 -221.4 383.4 -158.8C400.3 -96.2 443.5 -48.1 486.7 0L0 0Z" fill="#FBAE3C"></path></g></svg>