<svg id="visual" viewBox="0 0 960 540" width="960" height="540" xmlns="http://www.w3.org/2000/svg" xmlns:xlink="http://www.w3.org/1999/xlink" version="1.1"><rect x="0" y="0" width="960" height="540" fill="#ececec"></rect><path d="M0 173L53.3 174.5C106.7 176 213.3 179 320 187.8C426.7 196.7 533.3 211.3 640 208.7C746.7 206 853.3 186 906.7 176L960 166L960 0L906.7 0C853.3 0 746.7 0 640 0C533.3 0 426.7 0 320 0C213.3 0 106.7 0 53.3 0L0 0Z" fill="#bae8e8"></path><path d="M0 136L53.3 133.3C106.7 130.7 213.3 125.3 320 123C426.7 120.7 533.3 121.3 640 118C746.7 114.7 853.3 107.3 906.7 103.7L960 100L960 0L906.7 0C853.3 0 746.7 0 640 0C533.3 0 426.7 0 320 0C213.3 0 106.7 0 53.3 0L0 0Z" fill="#001220"></path></svg>